<mxfile host="app.diagrams.net" modified="2024-06-22T23:24:48.203Z" agent="Mozilla/5.0 (X11; Linux x86_64) AppleWebKit/537.36 (KHTML, like Gecko) Chrome/126.0.0.0 Safari/537.36" etag="W8NR6TfO8z4CjDoCqwXj" version="24.6.2" type="github">
  <diagram name="Page-1" id="NQ_Y0EgmU-5QERtnOthc">
    <mxGraphModel dx="1434" dy="789" grid="1" gridSize="10" guides="1" tooltips="1" connect="1" arrows="1" fold="1" page="1" pageScale="1" pageWidth="850" pageHeight="1100" math="0" shadow="0">
      <root>
        <mxCell id="0" />
        <mxCell id="1" parent="0" />
        <mxCell id="7jpOO8D4wHBg1UqNjOyO-11" style="edgeStyle=orthogonalEdgeStyle;rounded=1;orthogonalLoop=1;jettySize=auto;html=1;exitX=0;exitY=0.5;exitDx=0;exitDy=0;entryX=1;entryY=0.5;entryDx=0;entryDy=0;curved=0;endArrow=none;endFill=0;" edge="1" parent="1" source="7jpOO8D4wHBg1UqNjOyO-1" target="7jpOO8D4wHBg1UqNjOyO-3">
          <mxGeometry relative="1" as="geometry" />
        </mxCell>
        <mxCell id="7jpOO8D4wHBg1UqNjOyO-12" style="edgeStyle=orthogonalEdgeStyle;rounded=1;orthogonalLoop=1;jettySize=auto;html=1;exitX=0;exitY=0.5;exitDx=0;exitDy=0;entryX=1;entryY=0.5;entryDx=0;entryDy=0;endArrow=none;endFill=0;curved=0;" edge="1" parent="1" source="7jpOO8D4wHBg1UqNjOyO-1" target="7jpOO8D4wHBg1UqNjOyO-4">
          <mxGeometry relative="1" as="geometry" />
        </mxCell>
        <mxCell id="7jpOO8D4wHBg1UqNjOyO-13" style="edgeStyle=orthogonalEdgeStyle;rounded=1;orthogonalLoop=1;jettySize=auto;html=1;exitX=0.5;exitY=0;exitDx=0;exitDy=0;entryX=1;entryY=0.5;entryDx=0;entryDy=0;endArrow=none;endFill=0;curved=0;" edge="1" parent="1" source="7jpOO8D4wHBg1UqNjOyO-1" target="7jpOO8D4wHBg1UqNjOyO-7">
          <mxGeometry relative="1" as="geometry" />
        </mxCell>
        <mxCell id="7jpOO8D4wHBg1UqNjOyO-14" style="edgeStyle=orthogonalEdgeStyle;rounded=1;orthogonalLoop=1;jettySize=auto;html=1;exitX=0.5;exitY=0;exitDx=0;exitDy=0;entryX=0;entryY=0.5;entryDx=0;entryDy=0;endArrow=none;endFill=0;curved=0;" edge="1" parent="1" source="7jpOO8D4wHBg1UqNjOyO-1" target="7jpOO8D4wHBg1UqNjOyO-6">
          <mxGeometry relative="1" as="geometry" />
        </mxCell>
        <mxCell id="7jpOO8D4wHBg1UqNjOyO-15" style="edgeStyle=orthogonalEdgeStyle;rounded=1;orthogonalLoop=1;jettySize=auto;html=1;exitX=0.5;exitY=0;exitDx=0;exitDy=0;entryX=0.5;entryY=1;entryDx=0;entryDy=0;endArrow=none;endFill=0;curved=0;" edge="1" parent="1" source="7jpOO8D4wHBg1UqNjOyO-1">
          <mxGeometry relative="1" as="geometry">
            <mxPoint x="450" y="50" as="targetPoint" />
          </mxGeometry>
        </mxCell>
        <mxCell id="7jpOO8D4wHBg1UqNjOyO-16" style="edgeStyle=orthogonalEdgeStyle;rounded=1;orthogonalLoop=1;jettySize=auto;html=1;exitX=1;exitY=0.5;exitDx=0;exitDy=0;entryX=0;entryY=0.5;entryDx=0;entryDy=0;curved=0;endArrow=none;endFill=0;" edge="1" parent="1" source="7jpOO8D4wHBg1UqNjOyO-1" target="7jpOO8D4wHBg1UqNjOyO-5">
          <mxGeometry relative="1" as="geometry" />
        </mxCell>
        <mxCell id="7jpOO8D4wHBg1UqNjOyO-1" value="hotel" style="whiteSpace=wrap;html=1;align=center;" vertex="1" parent="1">
          <mxGeometry x="400" y="130" width="100" height="40" as="geometry" />
        </mxCell>
        <mxCell id="7jpOO8D4wHBg1UqNjOyO-2" value="id_hotel" style="ellipse;whiteSpace=wrap;html=1;align=center;fontStyle=4;" vertex="1" parent="1">
          <mxGeometry x="400" y="10" width="100" height="40" as="geometry" />
        </mxCell>
        <mxCell id="7jpOO8D4wHBg1UqNjOyO-3" value="categoria" style="ellipse;whiteSpace=wrap;html=1;align=center;" vertex="1" parent="1">
          <mxGeometry x="220" y="160" width="100" height="40" as="geometry" />
        </mxCell>
        <mxCell id="7jpOO8D4wHBg1UqNjOyO-4" value="director" style="ellipse;whiteSpace=wrap;html=1;align=center;" vertex="1" parent="1">
          <mxGeometry x="220" y="100" width="100" height="40" as="geometry" />
        </mxCell>
        <mxCell id="7jpOO8D4wHBg1UqNjOyO-17" style="edgeStyle=orthogonalEdgeStyle;rounded=1;orthogonalLoop=1;jettySize=auto;html=1;exitX=1;exitY=0.5;exitDx=0;exitDy=0;entryX=0;entryY=0.5;entryDx=0;entryDy=0;curved=0;endArrow=none;endFill=0;" edge="1" parent="1" source="7jpOO8D4wHBg1UqNjOyO-5" target="7jpOO8D4wHBg1UqNjOyO-10">
          <mxGeometry relative="1" as="geometry" />
        </mxCell>
        <mxCell id="7jpOO8D4wHBg1UqNjOyO-18" style="edgeStyle=orthogonalEdgeStyle;rounded=1;orthogonalLoop=1;jettySize=auto;html=1;exitX=1;exitY=0.5;exitDx=0;exitDy=0;entryX=0;entryY=0.5;entryDx=0;entryDy=0;endArrow=none;endFill=0;curved=0;" edge="1" parent="1" source="7jpOO8D4wHBg1UqNjOyO-5" target="7jpOO8D4wHBg1UqNjOyO-9">
          <mxGeometry relative="1" as="geometry" />
        </mxCell>
        <mxCell id="7jpOO8D4wHBg1UqNjOyO-19" style="edgeStyle=orthogonalEdgeStyle;rounded=1;orthogonalLoop=1;jettySize=auto;html=1;exitX=1;exitY=0.5;exitDx=0;exitDy=0;entryX=0;entryY=0.5;entryDx=0;entryDy=0;endArrow=none;endFill=0;curved=0;" edge="1" parent="1" source="7jpOO8D4wHBg1UqNjOyO-5" target="7jpOO8D4wHBg1UqNjOyO-8">
          <mxGeometry relative="1" as="geometry" />
        </mxCell>
        <mxCell id="7jpOO8D4wHBg1UqNjOyO-5" value="direccion" style="ellipse;whiteSpace=wrap;html=1;align=center;" vertex="1" parent="1">
          <mxGeometry x="580" y="130" width="100" height="40" as="geometry" />
        </mxCell>
        <mxCell id="7jpOO8D4wHBg1UqNjOyO-6" value="nombre" style="ellipse;whiteSpace=wrap;html=1;align=center;" vertex="1" parent="1">
          <mxGeometry x="540" y="40" width="100" height="40" as="geometry" />
        </mxCell>
        <mxCell id="7jpOO8D4wHBg1UqNjOyO-7" value="telefono" style="ellipse;whiteSpace=wrap;html=1;align=center;" vertex="1" parent="1">
          <mxGeometry x="260" y="40" width="100" height="40" as="geometry" />
        </mxCell>
        <mxCell id="7jpOO8D4wHBg1UqNjOyO-8" value="ciudad" style="ellipse;whiteSpace=wrap;html=1;align=center;" vertex="1" parent="1">
          <mxGeometry x="745" y="190" width="100" height="40" as="geometry" />
        </mxCell>
        <mxCell id="7jpOO8D4wHBg1UqNjOyO-9" value="colonia" style="ellipse;whiteSpace=wrap;html=1;align=center;" vertex="1" parent="1">
          <mxGeometry x="745" y="130" width="100" height="40" as="geometry" />
        </mxCell>
        <mxCell id="7jpOO8D4wHBg1UqNjOyO-10" value="calle" style="ellipse;whiteSpace=wrap;html=1;align=center;" vertex="1" parent="1">
          <mxGeometry x="745" y="70" width="100" height="40" as="geometry" />
        </mxCell>
        <mxCell id="7jpOO8D4wHBg1UqNjOyO-33" style="edgeStyle=orthogonalEdgeStyle;rounded=1;orthogonalLoop=1;jettySize=auto;html=1;exitX=1;exitY=0.5;exitDx=0;exitDy=0;entryX=0;entryY=0.5;entryDx=0;entryDy=0;curved=0;endArrow=none;endFill=0;" edge="1" parent="1" source="7jpOO8D4wHBg1UqNjOyO-20" target="7jpOO8D4wHBg1UqNjOyO-25">
          <mxGeometry relative="1" as="geometry" />
        </mxCell>
        <mxCell id="7jpOO8D4wHBg1UqNjOyO-34" style="edgeStyle=orthogonalEdgeStyle;rounded=1;orthogonalLoop=1;jettySize=auto;html=1;exitX=1;exitY=0.5;exitDx=0;exitDy=0;entryX=0;entryY=0.5;entryDx=0;entryDy=0;curved=0;endArrow=none;endFill=0;" edge="1" parent="1" source="7jpOO8D4wHBg1UqNjOyO-20" target="7jpOO8D4wHBg1UqNjOyO-24">
          <mxGeometry relative="1" as="geometry" />
        </mxCell>
        <mxCell id="7jpOO8D4wHBg1UqNjOyO-35" style="edgeStyle=orthogonalEdgeStyle;rounded=1;orthogonalLoop=1;jettySize=auto;html=1;exitX=1;exitY=0.5;exitDx=0;exitDy=0;entryX=0;entryY=0.5;entryDx=0;entryDy=0;curved=0;endArrow=none;endFill=0;" edge="1" parent="1" source="7jpOO8D4wHBg1UqNjOyO-20" target="7jpOO8D4wHBg1UqNjOyO-26">
          <mxGeometry relative="1" as="geometry" />
        </mxCell>
        <mxCell id="7jpOO8D4wHBg1UqNjOyO-20" value="estancia" style="whiteSpace=wrap;html=1;align=center;" vertex="1" parent="1">
          <mxGeometry x="400" y="290" width="100" height="40" as="geometry" />
        </mxCell>
        <mxCell id="7jpOO8D4wHBg1UqNjOyO-22" style="edgeStyle=orthogonalEdgeStyle;rounded=1;orthogonalLoop=1;jettySize=auto;html=1;exitX=0.5;exitY=0;exitDx=0;exitDy=0;entryX=0.5;entryY=1;entryDx=0;entryDy=0;curved=0;endArrow=none;endFill=0;" edge="1" parent="1" source="7jpOO8D4wHBg1UqNjOyO-21" target="7jpOO8D4wHBg1UqNjOyO-1">
          <mxGeometry relative="1" as="geometry" />
        </mxCell>
        <mxCell id="7jpOO8D4wHBg1UqNjOyO-23" style="edgeStyle=orthogonalEdgeStyle;rounded=1;orthogonalLoop=1;jettySize=auto;html=1;exitX=0.5;exitY=1;exitDx=0;exitDy=0;entryX=0.5;entryY=0;entryDx=0;entryDy=0;endArrow=none;endFill=0;curved=0;" edge="1" parent="1" source="7jpOO8D4wHBg1UqNjOyO-21" target="7jpOO8D4wHBg1UqNjOyO-20">
          <mxGeometry relative="1" as="geometry" />
        </mxCell>
        <mxCell id="7jpOO8D4wHBg1UqNjOyO-21" value="posee" style="shape=rhombus;perimeter=rhombusPerimeter;whiteSpace=wrap;html=1;align=center;" vertex="1" parent="1">
          <mxGeometry x="390" y="200" width="120" height="60" as="geometry" />
        </mxCell>
        <mxCell id="7jpOO8D4wHBg1UqNjOyO-24" value="id_estancia" style="ellipse;whiteSpace=wrap;html=1;align=center;fontStyle=4;" vertex="1" parent="1">
          <mxGeometry x="580" y="290" width="100" height="40" as="geometry" />
        </mxCell>
        <mxCell id="7jpOO8D4wHBg1UqNjOyO-25" value="dimension" style="ellipse;whiteSpace=wrap;html=1;align=center;" vertex="1" parent="1">
          <mxGeometry x="580" y="230" width="100" height="40" as="geometry" />
        </mxCell>
        <mxCell id="7jpOO8D4wHBg1UqNjOyO-26" value="tamanio_cama" style="ellipse;whiteSpace=wrap;html=1;align=center;" vertex="1" parent="1">
          <mxGeometry x="580" y="350" width="100" height="40" as="geometry" />
        </mxCell>
        <mxCell id="7jpOO8D4wHBg1UqNjOyO-30" style="edgeStyle=orthogonalEdgeStyle;rounded=1;orthogonalLoop=1;jettySize=auto;html=1;exitX=1;exitY=0.5;exitDx=0;exitDy=0;entryX=0;entryY=0.5;entryDx=0;entryDy=0;curved=0;endArrow=none;endFill=0;" edge="1" parent="1" source="7jpOO8D4wHBg1UqNjOyO-27" target="7jpOO8D4wHBg1UqNjOyO-20">
          <mxGeometry relative="1" as="geometry" />
        </mxCell>
        <mxCell id="7jpOO8D4wHBg1UqNjOyO-27" value="num_planta" style="ellipse;whiteSpace=wrap;html=1;align=center;" vertex="1" parent="1">
          <mxGeometry x="220" y="230" width="100" height="40" as="geometry" />
        </mxCell>
        <mxCell id="7jpOO8D4wHBg1UqNjOyO-32" style="edgeStyle=orthogonalEdgeStyle;rounded=1;orthogonalLoop=1;jettySize=auto;html=1;exitX=1;exitY=0.5;exitDx=0;exitDy=0;entryX=0;entryY=0.5;entryDx=0;entryDy=0;curved=0;endArrow=none;endFill=0;" edge="1" parent="1" source="7jpOO8D4wHBg1UqNjOyO-28" target="7jpOO8D4wHBg1UqNjOyO-20">
          <mxGeometry relative="1" as="geometry" />
        </mxCell>
        <mxCell id="7jpOO8D4wHBg1UqNjOyO-28" value="cap_minima" style="ellipse;whiteSpace=wrap;html=1;align=center;" vertex="1" parent="1">
          <mxGeometry x="220" y="350" width="100" height="40" as="geometry" />
        </mxCell>
        <mxCell id="7jpOO8D4wHBg1UqNjOyO-31" style="edgeStyle=orthogonalEdgeStyle;rounded=1;orthogonalLoop=1;jettySize=auto;html=1;exitX=1;exitY=0.5;exitDx=0;exitDy=0;entryX=0;entryY=0.5;entryDx=0;entryDy=0;curved=0;endArrow=none;endFill=0;" edge="1" parent="1" source="7jpOO8D4wHBg1UqNjOyO-29" target="7jpOO8D4wHBg1UqNjOyO-20">
          <mxGeometry relative="1" as="geometry" />
        </mxCell>
        <mxCell id="7jpOO8D4wHBg1UqNjOyO-29" value="cap_maxima" style="ellipse;whiteSpace=wrap;html=1;align=center;" vertex="1" parent="1">
          <mxGeometry x="220" y="290" width="100" height="40" as="geometry" />
        </mxCell>
        <mxCell id="7jpOO8D4wHBg1UqNjOyO-36" value="" style="strokeWidth=2;html=1;shape=mxgraph.flowchart.merge_or_storage;whiteSpace=wrap;" vertex="1" parent="1">
          <mxGeometry x="412.5" y="360" width="75" height="40" as="geometry" />
        </mxCell>
        <mxCell id="7jpOO8D4wHBg1UqNjOyO-37" style="edgeStyle=orthogonalEdgeStyle;rounded=1;orthogonalLoop=1;jettySize=auto;html=1;exitX=0.5;exitY=1;exitDx=0;exitDy=0;entryX=0.5;entryY=0;entryDx=0;entryDy=0;entryPerimeter=0;curved=0;endArrow=none;endFill=0;" edge="1" parent="1" source="7jpOO8D4wHBg1UqNjOyO-20" target="7jpOO8D4wHBg1UqNjOyO-36">
          <mxGeometry relative="1" as="geometry" />
        </mxCell>
        <mxCell id="7jpOO8D4wHBg1UqNjOyO-38" value="habitacion" style="whiteSpace=wrap;html=1;align=center;" vertex="1" parent="1">
          <mxGeometry x="480" y="440" width="100" height="40" as="geometry" />
        </mxCell>
        <mxCell id="7jpOO8D4wHBg1UqNjOyO-39" value="salon" style="whiteSpace=wrap;html=1;align=center;" vertex="1" parent="1">
          <mxGeometry x="320" y="440" width="100" height="40" as="geometry" />
        </mxCell>
        <mxCell id="7jpOO8D4wHBg1UqNjOyO-42" style="edgeStyle=orthogonalEdgeStyle;rounded=1;orthogonalLoop=1;jettySize=auto;html=1;exitX=0.5;exitY=0;exitDx=0;exitDy=0;entryX=0.5;entryY=1;entryDx=0;entryDy=0;entryPerimeter=0;curved=0;endArrow=none;endFill=0;" edge="1" parent="1" source="7jpOO8D4wHBg1UqNjOyO-39" target="7jpOO8D4wHBg1UqNjOyO-36">
          <mxGeometry relative="1" as="geometry" />
        </mxCell>
        <mxCell id="7jpOO8D4wHBg1UqNjOyO-43" style="edgeStyle=orthogonalEdgeStyle;rounded=1;orthogonalLoop=1;jettySize=auto;html=1;exitX=0.5;exitY=0;exitDx=0;exitDy=0;entryX=0.5;entryY=1;entryDx=0;entryDy=0;entryPerimeter=0;curved=0;endArrow=none;endFill=0;" edge="1" parent="1" source="7jpOO8D4wHBg1UqNjOyO-38" target="7jpOO8D4wHBg1UqNjOyO-36">
          <mxGeometry relative="1" as="geometry" />
        </mxCell>
      </root>
    </mxGraphModel>
  </diagram>
</mxfile>
